<svg width="314" height="15" viewBox="0 0 314 15" fill="none" xmlns="http://www.w3.org/2000/svg">
<path d="M3 10L31.973 4.2054C37.5268 3.09464 43.2869 3.69439 48.4928 5.92547V5.92547C54.6283 8.55497 61.5014 8.90582 67.8727 6.91477L71.7792 5.69401C78.4597 3.60634 85.591 3.4287 92.3672 5.18116L105.236 8.50938C108.855 9.44517 112.702 8.58141 115.573 6.18875V6.18875C118.362 3.86487 122.077 2.9794 125.614 3.79564L143.281 7.87261C149.369 9.27743 155.672 9.48368 161.838 8.47985L164.365 8.06844C170.728 7.03259 177.232 7.23706 183.517 8.67057L191.176 10.4174C198.504 12.0886 206.183 11.2014 212.936 7.9032V7.9032C220.071 4.419 228.224 3.63144 235.893 5.68571L242.817 7.54026C248.827 9.15012 255.161 9.10549 261.147 7.4111L270.096 4.87859C275.361 3.38843 281.022 4.56941 285.252 8.04042V8.04042C292.321 13.8402 302.737 12.8853 308.634 5.89719L311.5 2.5" stroke="#FACC15" stroke-width="5" stroke-linecap="round"/>
</svg>
